<svg width="1584" height="396" viewBox="0 0 1584 396" fill="none" xmlns="http://www.w3.org/2000/svg">
<rect width="1584" height="396" fill="#F5F5F5"/>
<g id="Awesome banner" clip-path="url(#clip0_0_1)">
<rect width="1584" height="396" fill="url(#paint0_linear_0_1)"/>
<ellipse id="Ellipse 2" cx="323" cy="64" rx="285" ry="288" fill="url(#paint1_linear_0_1)" fill-opacity="0.1"/>
<g id="copyright">
<path d="M75.95 334.52L72.30 334.52L72.30 311.16L77.20 311.16L83.70 330.04Q83.60 329.02 83.50 327.62Q83.41 326.23 83.33 324.79Q83.25 323.35 83.25 322.23L83.25 311.16L86.90 311.16L86.90 334.52L82 334.52L75.57 315.64Q75.63 316.57 75.73 317.88Q75.82 319.19 75.89 320.57Q75.95 321.94 75.95 323.10L75.95 334.52M98.80 334.84Q96.46 334.84 94.67 333.96Q92.88 333.08 91.89 331.53Q90.90 329.98 90.90 327.93Q90.90 325.78 92.13 324.18Q93.36 322.58 95.34 322.17L95.34 322.10Q93.65 321.75 92.61 320.38Q91.57 319 91.57 317.11Q91.57 315.26 92.48 313.85Q93.39 312.44 95.02 311.64Q96.66 310.84 98.80 310.84Q100.94 310.84 102.59 311.64Q104.24 312.44 105.15 313.85Q106.06 315.26 106.06 317.11Q106.06 319 105.01 320.38Q103.95 321.75 102.26 322.10L102.26 322.17Q104.24 322.58 105.47 324.18Q106.70 325.78 106.70 327.93Q106.70 329.98 105.71 331.53Q104.72 333.08 102.93 333.96Q101.14 334.84 98.80 334.84M98.80 320.73Q100.30 320.73 101.23 319.82Q102.16 318.90 102.16 317.46Q102.16 315.99 101.23 315.08Q100.30 314.17 98.80 314.17Q97.30 314.17 96.37 315.08Q95.44 315.99 95.44 317.46Q95.44 318.90 96.37 319.82Q97.30 320.73 98.80 320.73M98.80 331.45Q100.56 331.45 101.68 330.42Q102.80 329.40 102.80 327.74Q102.80 326.04 101.68 325Q100.56 323.96 98.80 323.96Q97.04 323.96 95.92 325Q94.80 326.04 94.80 327.74Q94.80 329.40 95.92 330.42Q97.04 331.45 98.80 331.45M114.35 334.52L110.70 334.52L110.70 311.16L115.60 311.16L122.10 330.04Q122 329.02 121.90 327.62Q121.81 326.23 121.73 324.79Q121.65 323.35 121.65 322.23L121.65 311.16L125.30 311.16L125.30 334.52L120.40 334.52L113.97 315.64Q114.03 316.57 114.13 317.88Q114.22 319.19 114.29 320.57Q114.35 321.94 114.35 323.10" fill="white" fill-opacity="0.9"/>
<path d="M161.48 325.24L151.24 325.24L151.24 322.68L161.48 322.68" fill="white" fill-opacity="0.9"/>
<path d="M195.02 334.84Q191.82 334.84 189.96 333.05Q188.11 331.26 188.11 328.12L188.11 317.56Q188.11 314.42 189.96 312.63Q191.82 310.84 195.02 310.84Q198.15 310.84 200.01 312.65Q201.87 314.46 201.87 317.56L198.99 317.56Q198.99 315.58 197.95 314.50Q196.91 313.43 195.02 313.43Q193.13 313.43 192.06 314.50Q190.99 315.58 190.99 317.56L190.99 328.12Q190.99 330.10 192.06 331.18Q193.13 332.25 195.02 332.25Q196.91 332.25 197.95 331.18Q198.99 330.10 198.99 328.12L201.87 328.12Q201.87 331.22 200.01 333.03Q198.15 334.84 195.02 334.84" fill="white" fill-opacity="0.9"/>
<path d="M213.96 334.84Q210.83 334.84 209 333.02Q207.18 331.19 207.18 327.80L207.18 317.88Q207.18 314.49 209 312.66Q210.83 310.84 213.96 310.84Q217.10 310.84 218.92 312.66Q220.75 314.49 220.75 317.85L220.75 327.80Q220.75 331.19 218.92 333.02Q217.10 334.84 213.96 334.84M213.96 332.25Q215.85 332.25 216.86 331.18Q217.87 330.10 217.87 328.12L217.87 317.56Q217.87 315.58 216.86 314.50Q215.85 313.43 213.96 313.43Q212.11 313.43 211.08 314.50Q210.06 315.58 210.06 317.56L210.06 328.12Q210.06 330.10 211.08 331.18Q212.11 332.25 213.96 332.25" fill="white" fill-opacity="0.9"/>
<path d="M228.65 334.52L225.87 334.52L225.87 311.16L230.12 311.16L233.10 321.27L236.20 311.16L240.46 311.16L240.46 334.52L237.67 334.52L237.67 323.48Q237.67 321.91 237.72 319.88Q237.77 317.85 237.87 315.77Q237.96 313.69 238.09 312.02L234.31 324.09L231.82 324.09L228.20 312.31Q228.46 314.68 228.55 317.50Q228.65 320.31 228.65 323.48" fill="white" fill-opacity="0.9"/>
<path d="M247.85 334.52L245.07 334.52L245.07 311.16L249.32 311.16L252.30 321.27L255.40 311.16L259.66 311.16L259.66 334.52L256.87 334.52L256.87 323.48Q256.87 321.91 256.92 319.88Q256.97 317.85 257.07 315.77Q257.16 313.69 257.29 312.02L253.51 324.09L251.02 324.09L247.40 312.31Q247.66 314.68 247.75 317.50Q247.85 320.31 247.85 323.48" fill="white" fill-opacity="0.9"/>
<path d="M271.56 334.84Q268.30 334.84 266.57 333.03Q264.84 331.22 264.84 328.12L264.84 311.16L267.72 311.16L267.72 328.12Q267.72 330.04 268.67 331.16Q269.61 332.28 271.56 332.28Q273.48 332.28 274.44 331.16Q275.40 330.04 275.40 328.12L275.40 311.16L278.28 311.16L278.28 328.12Q278.28 331.26 276.57 333.05Q274.86 334.84 271.56 334.84" fill="white" fill-opacity="0.9"/>
<path d="M286.83 334.52L284.04 334.52L284.04 311.16L287.88 311.16L295.02 331.16Q294.95 330.36 294.87 329.19Q294.79 328.02 294.75 326.73Q294.70 325.43 294.70 324.28L294.70 311.16L297.48 311.16L297.48 334.52L293.64 334.52L286.54 314.52Q286.60 315.29 286.67 316.46Q286.73 317.62 286.78 318.92Q286.83 320.22 286.83 321.40" fill="white" fill-opacity="0.9"/>
<path d="M316.20 334.52L303.72 334.52L303.72 331.90L308.49 331.90L308.49 313.78L303.72 313.78L303.72 311.16L316.20 311.16L316.20 313.78L311.43 313.78L311.43 331.90L316.20 331.90" fill="white" fill-opacity="0.9"/>
<path d="M330.60 334.52L327.72 334.52L327.72 313.78L321.32 313.78L321.32 311.16L337 311.16L337 313.78L330.60 313.78" fill="white" fill-opacity="0.9"/>
<path d="M349.80 334.52L346.92 334.52L346.92 325.78L339.88 311.16L342.95 311.16L347.50 320.76Q347.88 321.56 348.11 322.12Q348.33 322.68 348.39 322.94Q348.46 322.68 348.70 322.12Q348.94 321.56 349.32 320.76L353.87 311.16L356.84 311.16L349.80 325.78" fill="white" fill-opacity="0.9"/>
<path d="M382.83 334.52L380.04 334.52L380.04 311.16L383.88 311.16L391.02 331.16Q390.95 330.36 390.87 329.19Q390.79 328.02 390.75 326.73Q390.70 325.43 390.70 324.28L390.70 311.16L393.48 311.16L393.48 334.52L389.64 334.52L382.54 314.52Q382.60 315.29 382.67 316.46Q382.73 317.62 382.78 318.92Q382.83 320.22 382.83 321.40" fill="white" fill-opacity="0.9"/>
<path d="M405.96 334.84Q402.83 334.84 401 333.02Q399.18 331.19 399.18 327.80L399.18 317.88Q399.18 314.49 401 312.66Q402.83 310.84 405.96 310.84Q409.10 310.84 410.92 312.66Q412.75 314.49 412.75 317.85L412.75 327.80Q412.75 331.19 410.92 333.02Q409.10 334.84 405.96 334.84M405.96 332.25Q407.85 332.25 408.86 331.18Q409.87 330.10 409.87 328.12L409.87 317.56Q409.87 315.58 408.86 314.50Q407.85 313.43 405.96 313.43Q404.11 313.43 403.08 314.50Q402.06 315.58 402.06 317.56L402.06 328.12Q402.06 330.10 403.08 331.18Q404.11 332.25 405.96 332.25" fill="white" fill-opacity="0.9"/>
<path d="M424.55 334.52L418.51 334.52L418.51 311.16L424.55 311.16Q426.83 311.16 428.47 312.02Q430.12 312.89 431.03 314.46Q431.95 316.02 431.95 318.17L431.95 327.48Q431.95 329.62 431.03 331.21Q430.12 332.79 428.47 333.66Q426.83 334.52 424.55 334.52M421.39 313.72L421.39 331.96L424.55 331.96Q426.67 331.96 427.87 330.78Q429.07 329.59 429.07 327.48L429.07 318.17Q429.07 316.09 427.87 314.90Q426.67 313.72 424.55 313.72" fill="white" fill-opacity="0.9"/>
<path d="M451.40 334.52L437.96 334.52L437.96 311.16L451.40 311.16L451.40 313.78L440.81 313.78L440.81 321.02L450.28 321.02L450.28 323.58L440.81 323.58L440.81 331.90L451.40 331.90" fill="white" fill-opacity="0.9"/>
<path d="M463.69 334.84Q460.30 334.84 458.28 333.05Q456.27 331.26 456.27 328.12L459.15 328.12Q459.15 330.07 460.39 331.18Q461.64 332.28 463.69 332.28Q465.67 332.28 466.86 331.13Q468.04 329.98 468.04 328.12Q468.04 326.71 467.29 325.67Q466.54 324.63 465.13 324.25L461.58 323.26Q459.37 322.62 458.11 320.97Q456.84 319.32 456.84 317.08Q456.84 315.22 457.67 313.82Q458.51 312.41 460.01 311.62Q461.51 310.84 463.47 310.84Q465.45 310.84 466.97 311.62Q468.49 312.41 469.35 313.80Q470.22 315.19 470.22 317.02L467.34 317.02Q467.34 315.42 466.25 314.41Q465.16 313.40 463.47 313.40Q461.77 313.40 460.71 314.41Q459.66 315.42 459.66 317.02Q459.66 318.30 460.35 319.21Q461.03 320.12 462.28 320.47L465.93 321.50Q468.27 322.14 469.56 323.91Q470.86 325.69 470.86 328.12Q470.86 331.19 468.91 333.02Q466.95 334.84 463.69 334.84" fill="white" fill-opacity="0.9"/>
</g>
<path d="M73.41 197.64L71.20 197.64L75.76 180.12L78.66 180.12L83.20 197.64L81.02 197.64L79.86 192.98L74.56 192.98L73.41 197.64M76.34 185.74L74.99 191.16L79.41 191.16L78.06 185.76Q77.68 184.22 77.46 183.19Q77.25 182.16 77.20 181.85Q77.15 182.16 76.94 183.19Q76.72 184.22 76.34 185.74" fill="white" fill-opacity="0.7"/>
<path d="M88.77 197.64L86.61 197.64L86.61 184.44L88.77 184.44L88.77 186.96L88.79 186.96Q88.96 185.64 89.87 184.92Q90.78 184.20 92.30 184.20Q94.29 184.20 95.46 185.42Q96.64 186.65 96.64 188.76L96.64 197.64L94.48 197.64L94.48 189.14Q94.48 187.63 93.72 186.83Q92.97 186.02 91.67 186.02Q90.33 186.02 89.55 186.86Q88.77 187.70 88.77 189.24" fill="white" fill-opacity="0.7"/>
<path d="M111.16 197.64L107.32 197.64Q105.69 197.64 104.70 196.69Q103.72 195.74 103.72 194.16L103.72 186.41L99.93 186.41L99.93 184.44L103.72 184.44L103.72 180.72L105.88 180.72L105.88 184.44L111.28 184.44L111.28 186.41L105.88 186.41L105.88 194.16Q105.88 194.83 106.28 195.25Q106.67 195.67 107.32 195.67L111.16 195.67" fill="white" fill-opacity="0.7"/>
<path d="M119.73 201.96L117.47 201.96L119.42 196.82L114.50 184.44L116.82 184.44L119.94 192.60Q120.14 193.08 120.30 193.61Q120.47 194.14 120.54 194.52Q120.62 194.14 120.78 193.61Q120.95 193.08 121.12 192.60L124.02 184.44L126.30 184.44" fill="white" fill-opacity="0.7"/>
<path d="M134.80 197.83Q132.42 197.83 131.02 196.44Q129.62 195.05 129.62 192.55L129.62 189.53Q129.62 187.01 131.01 185.63Q132.40 184.25 134.80 184.25Q137.20 184.25 138.59 185.63Q139.98 187.01 139.98 189.53L139.98 192.55Q139.98 195.05 138.58 196.44Q137.18 197.83 134.80 197.83M134.80 195.91Q136.22 195.91 137.02 195.12Q137.82 194.33 137.82 192.79L137.82 189.29Q137.82 187.75 137.02 186.96Q136.22 186.17 134.80 186.17Q133.41 186.17 132.59 186.96Q131.78 187.75 131.78 189.29L131.78 192.79Q131.78 194.33 132.59 195.12Q133.41 195.91 134.80 195.91" fill="white" fill-opacity="0.7"/>
<path d="M148.43 197.88Q146.46 197.88 145.28 196.56Q144.09 195.24 144.09 192.98L144.09 189.12Q144.09 186.84 145.26 185.52Q146.44 184.20 148.43 184.20Q149.92 184.20 150.89 184.94Q151.86 185.69 152.06 186.96L152.08 186.96L152.03 183.96L152.03 180.12L154.19 180.12L154.19 197.64L152.03 197.64L152.03 195.12L152.01 195.12Q151.84 196.42 150.88 197.15Q149.92 197.88 148.43 197.88M149.15 196.01Q150.50 196.01 151.26 195.17Q152.03 194.33 152.03 192.84L152.03 189.24Q152.03 187.75 151.26 186.91Q150.50 186.07 149.15 186.07Q147.78 186.07 147.02 186.78Q146.25 187.49 146.25 189.12L146.25 192.96Q146.25 194.57 147.02 195.29Q147.78 196.01 149.15 196.01" fill="white" fill-opacity="0.7"/>
<path d="M162.45 197.88Q160.41 197.88 159.21 196.74Q158.01 195.60 158.01 193.75Q158.01 192.53 158.56 191.62Q159.11 190.70 160.10 190.19Q161.08 189.67 162.35 189.67L166.43 189.67L166.43 188.64Q166.43 186.07 163.62 186.07Q162.38 186.07 161.61 186.53Q160.84 186.98 160.79 187.80L158.63 187.80Q158.75 186.24 160.08 185.22Q161.42 184.20 163.62 184.20Q166.02 184.20 167.31 185.35Q168.59 186.50 168.59 188.57L168.59 197.64L166.46 197.64L166.46 195.24L166.41 195.24Q166.22 196.46 165.18 197.17Q164.15 197.88 162.45 197.88M162.98 196.06Q164.56 196.06 165.50 195.29Q166.43 194.52 166.43 193.20L166.43 191.35L162.59 191.35Q161.54 191.35 160.88 191.99Q160.22 192.62 160.22 193.68Q160.22 194.78 160.95 195.42Q161.68 196.06 162.98 196.06" fill="white" fill-opacity="0.7"/>
<path d="M177.33 201.96L175.07 201.96L177.02 196.82L172.10 184.44L174.42 184.44L177.54 192.60Q177.74 193.08 177.90 193.61Q178.07 194.14 178.14 194.52Q178.22 194.14 178.38 193.61Q178.55 193.08 178.72 192.60L181.62 184.44L183.90 184.44" fill="white" fill-opacity="0.7"/>
<path d="M191.25 197.88Q189.21 197.88 188.01 196.74Q186.81 195.60 186.81 193.75Q186.81 192.53 187.36 191.62Q187.91 190.70 188.90 190.19Q189.88 189.67 191.15 189.67L195.23 189.67L195.23 188.64Q195.23 186.07 192.42 186.07Q191.18 186.07 190.41 186.53Q189.64 186.98 189.59 187.80L187.43 187.80Q187.55 186.24 188.88 185.22Q190.22 184.20 192.42 184.20Q194.82 184.20 196.11 185.35Q197.39 186.50 197.39 188.57L197.39 197.64L195.26 197.64L195.26 195.24L195.21 195.24Q195.02 196.46 193.98 197.17Q192.95 197.88 191.25 197.88M191.78 196.06Q193.36 196.06 194.30 195.29Q195.23 194.52 195.23 193.20L195.23 191.35L191.39 191.35Q190.34 191.35 189.68 191.99Q189.02 192.62 189.02 193.68Q189.02 194.78 189.75 195.42Q190.48 196.06 191.78 196.06" fill="white" fill-opacity="0.7"/>
<path d="M221.30 197.88Q218.75 197.88 217.24 196.54Q215.73 195.19 215.73 192.84L217.89 192.84Q217.89 194.30 218.82 195.13Q219.76 195.96 221.30 195.96Q222.78 195.96 223.67 195.10Q224.56 194.23 224.56 192.84Q224.56 191.78 224 191Q223.43 190.22 222.38 189.94L219.71 189.19Q218.06 188.71 217.11 187.48Q216.16 186.24 216.16 184.56Q216.16 183.17 216.78 182.11Q217.41 181.06 218.54 180.47Q219.66 179.88 221.13 179.88Q222.62 179.88 223.76 180.47Q224.90 181.06 225.54 182.10Q226.19 183.14 226.19 184.51L224.03 184.51Q224.03 183.31 223.22 182.56Q222.40 181.80 221.13 181.80Q219.86 181.80 219.06 182.56Q218.27 183.31 218.27 184.51Q218.27 185.47 218.79 186.16Q219.30 186.84 220.24 187.10L222.98 187.87Q224.73 188.35 225.70 189.68Q226.67 191.02 226.67 192.84Q226.67 195.14 225.21 196.51Q223.74 197.88 221.30 197.88" fill="white" fill-opacity="0.7"/>
<path d="M234.45 197.88Q232.41 197.88 231.21 196.74Q230.01 195.60 230.01 193.75Q230.01 192.53 230.56 191.62Q231.11 190.70 232.10 190.19Q233.08 189.67 234.35 189.67L238.43 189.67L238.43 188.64Q238.43 186.07 235.62 186.07Q234.38 186.07 233.61 186.53Q232.84 186.98 232.79 187.80L230.63 187.80Q230.75 186.24 232.08 185.22Q233.42 184.20 235.62 184.20Q238.02 184.20 239.31 185.35Q240.59 186.50 240.59 188.57L240.59 197.64L238.46 197.64L238.46 195.24L238.41 195.24Q238.22 196.46 237.18 197.17Q236.15 197.88 234.45 197.88M234.98 196.06Q236.56 196.06 237.50 195.29Q238.43 194.52 238.43 193.20L238.43 191.35L234.59 191.35Q233.54 191.35 232.88 191.99Q232.22 192.62 232.22 193.68Q232.22 194.78 232.95 195.42Q233.68 196.06 234.98 196.06" fill="white" fill-opacity="0.7"/>
<path d="M247.65 197.64L245.49 197.64L245.49 184.44L247.65 184.44L247.65 186.96L247.70 186.96Q247.86 185.69 248.78 184.94Q249.69 184.20 251.22 184.20Q253.29 184.20 254.40 185.44Q255.52 186.67 255.52 188.95L255.52 190.08L253.36 190.08L253.36 188.95Q253.36 186.07 250.55 186.07Q249.14 186.07 248.39 186.89Q247.65 187.70 247.65 189.24" fill="white" fill-opacity="0.7"/>
<path d="M263.25 197.88Q261.21 197.88 260.01 196.74Q258.81 195.60 258.81 193.75Q258.81 192.53 259.36 191.62Q259.91 190.70 260.90 190.19Q261.88 189.67 263.15 189.67L267.23 189.67L267.23 188.64Q267.23 186.07 264.42 186.07Q263.18 186.07 262.41 186.53Q261.64 186.98 261.59 187.80L259.43 187.80Q259.55 186.24 260.88 185.22Q262.22 184.20 264.42 184.20Q266.82 184.20 268.11 185.35Q269.39 186.50 269.39 188.57L269.39 197.64L267.26 197.64L267.26 195.24L267.21 195.24Q267.02 196.46 265.98 197.17Q264.95 197.88 263.25 197.88M263.78 196.06Q265.36 196.06 266.30 195.29Q267.23 194.52 267.23 193.20L267.23 191.35L263.39 191.35Q262.34 191.35 261.68 191.99Q261.02 192.62 261.02 193.68Q261.02 194.78 261.75 195.42Q262.48 196.06 263.78 196.06" fill="white" fill-opacity="0.7"/>
<path d="M284.80 197.64L280.72 197.64Q278.97 197.64 277.92 196.62Q276.88 195.60 276.88 193.92L276.88 182.09L272.32 182.09L272.32 180.12L279.04 180.12L279.04 193.92Q279.04 194.74 279.50 195.20Q279.95 195.67 280.72 195.67L284.80 195.67" fill="white" fill-opacity="0.7"/>
<path d="M304.79 197.64L302.63 197.64L302.63 180.12L304.79 180.12L304.79 187.61L310.41 187.61L310.41 180.12L312.57 180.12L312.57 197.64L310.41 197.64L310.41 189.58L304.79 189.58" fill="white" fill-opacity="0.7"/>
<path d="M320.85 197.88Q318.81 197.88 317.61 196.74Q316.41 195.60 316.41 193.75Q316.41 192.53 316.96 191.62Q317.51 190.70 318.50 190.19Q319.48 189.67 320.75 189.67L324.83 189.67L324.83 188.64Q324.83 186.07 322.02 186.07Q320.78 186.07 320.01 186.53Q319.24 186.98 319.19 187.80L317.03 187.80Q317.15 186.24 318.48 185.22Q319.82 184.20 322.02 184.20Q324.42 184.20 325.71 185.35Q326.99 186.50 326.99 188.57L326.99 197.64L324.86 197.64L324.86 195.24L324.81 195.24Q324.62 196.46 323.58 197.17Q322.55 197.88 320.85 197.88M321.38 196.06Q322.96 196.06 323.90 195.29Q324.83 194.52 324.83 193.20L324.83 191.35L320.99 191.35Q319.94 191.35 319.28 191.99Q318.62 192.62 318.62 193.68Q318.62 194.78 319.35 195.42Q320.08 196.06 321.38 196.06" fill="white" fill-opacity="0.7"/>
<path d="M334.05 197.64L331.89 197.64L331.89 184.44L334.05 184.44L334.05 186.96L334.10 186.96Q334.26 185.69 335.18 184.94Q336.09 184.20 337.62 184.20Q339.69 184.20 340.80 185.44Q341.92 186.67 341.92 188.95L341.92 190.08L339.76 190.08L339.76 188.95Q339.76 186.07 336.95 186.07Q335.54 186.07 334.79 186.89Q334.05 187.70 334.05 189.24" fill="white" fill-opacity="0.7"/>
<path d="M350.13 201.96L347.87 201.96L349.82 196.82L344.90 184.44L347.22 184.44L350.34 192.60Q350.54 193.08 350.70 193.61Q350.87 194.14 350.94 194.52Q351.02 194.14 351.18 193.61Q351.35 193.08 351.52 192.60L354.42 184.44L356.70 184.44" fill="white" fill-opacity="0.7"/>
<path d="M364.05 197.88Q362.01 197.88 360.81 196.74Q359.61 195.60 359.61 193.75Q359.61 192.53 360.16 191.62Q360.71 190.70 361.70 190.19Q362.68 189.67 363.95 189.67L368.03 189.67L368.03 188.64Q368.03 186.07 365.22 186.07Q363.98 186.07 363.21 186.53Q362.44 186.98 362.39 187.80L360.23 187.80Q360.35 186.24 361.68 185.22Q363.02 184.20 365.22 184.20Q367.62 184.20 368.91 185.35Q370.19 186.50 370.19 188.57L370.19 197.64L368.06 197.64L368.06 195.24L368.01 195.24Q367.82 196.46 366.78 197.17Q365.75 197.88 364.05 197.88M364.58 196.06Q366.16 196.06 367.10 195.29Q368.03 194.52 368.03 193.20L368.03 191.35L364.19 191.35Q363.14 191.35 362.48 191.99Q361.82 192.62 361.82 193.68Q361.82 194.78 362.55 195.42Q363.28 196.06 364.58 196.06" fill="white" fill-opacity="0.7"/>
<path d="M376.77 197.64L374.61 197.64L374.61 184.44L376.77 184.44L376.77 186.96L376.79 186.96Q376.96 185.64 377.87 184.92Q378.78 184.20 380.30 184.20Q382.29 184.20 383.46 185.42Q384.64 186.65 384.64 188.76L384.64 197.64L382.48 197.64L382.48 189.14Q382.48 187.63 381.72 186.83Q380.97 186.02 379.67 186.02Q378.33 186.02 377.55 186.86Q376.77 187.70 376.77 189.24" fill="white" fill-opacity="0.7"/>
<path d="M392.85 197.88Q390.81 197.88 389.61 196.74Q388.41 195.60 388.41 193.75Q388.41 192.53 388.96 191.62Q389.51 190.70 390.50 190.19Q391.48 189.67 392.75 189.67L396.83 189.67L396.83 188.64Q396.83 186.07 394.02 186.07Q392.78 186.07 392.01 186.53Q391.24 186.98 391.19 187.80L389.03 187.80Q389.15 186.24 390.48 185.22Q391.82 184.20 394.02 184.20Q396.42 184.20 397.71 185.35Q398.99 186.50 398.99 188.57L398.99 197.64L396.86 197.64L396.86 195.24L396.81 195.24Q396.62 196.46 395.58 197.17Q394.55 197.88 392.85 197.88M393.38 196.06Q394.96 196.06 395.90 195.29Q396.83 194.52 396.83 193.20L396.83 191.35L392.99 191.35Q391.94 191.35 391.28 191.99Q390.62 192.62 390.62 193.68Q390.62 194.78 391.35 195.42Q392.08 196.06 393.38 196.06" fill="white" fill-opacity="0.7"/>
<path d="M419.01 197.64L416.80 197.64L421.36 180.12L424.26 180.12L428.80 197.64L426.62 197.64L425.46 192.98L420.16 192.98L419.01 197.64M421.94 185.74L420.59 191.16L425.01 191.16L423.66 185.76Q423.28 184.22 423.06 183.19Q422.85 182.16 422.80 181.85Q422.75 182.16 422.54 183.19Q422.32 184.22 421.94 185.74" fill="white" fill-opacity="0.7"/>
<path d="M434.37 197.64L432.21 197.64L432.21 180.12L437.85 180.12Q440.30 180.12 441.75 181.52Q443.20 182.93 443.20 185.28Q443.20 187.63 441.75 189.04Q440.30 190.44 437.85 190.44L434.37 190.44L434.37 197.64M434.37 182.06L434.37 188.50L437.85 188.50Q439.26 188.50 440.12 187.62Q440.97 186.74 440.97 185.28Q440.97 183.79 440.12 182.93Q439.26 182.06 437.85 182.06" fill="white" fill-opacity="0.7"/>
<path d="M456.28 197.64L446.92 197.64L446.92 195.67L450.50 195.67L450.50 182.09L446.92 182.09L446.92 180.12L456.28 180.12L456.28 182.09L452.70 182.09L452.70 195.67L456.28 195.67" fill="white" fill-opacity="0.7"/>
<path d="M466.53 197.83L465.47 197.83Q463.26 197.83 462.05 196.84Q460.84 195.84 460.84 194.02L463 194.02Q463 194.93 463.65 195.44Q464.30 195.96 465.47 195.96L466.53 195.96Q467.73 195.96 468.39 195.43Q469.05 194.90 469.05 193.94Q469.05 192.24 467.49 192.02L463.84 191.50Q462.50 191.30 461.75 190.38Q461.01 189.46 461.01 187.94Q461.01 186.22 462.20 185.23Q463.38 184.25 465.47 184.25L466.53 184.25Q468.45 184.25 469.66 185.20Q470.87 186.14 470.97 187.68L468.78 187.68Q468.74 186.98 468.12 186.53Q467.51 186.07 466.53 186.07L465.47 186.07Q464.37 186.07 463.74 186.58Q463.12 187.08 463.12 187.94Q463.12 189.34 464.39 189.53L467.80 190.01Q471.16 190.49 471.16 193.94Q471.16 195.79 469.95 196.81Q468.74 197.83 466.53 197.83" fill="white" fill-opacity="0.7"/>
<path d="M480.40 197.88Q479.51 197.88 478.97 197.35Q478.43 196.82 478.43 195.98Q478.43 195.10 478.97 194.54Q479.51 193.99 480.40 193.99Q481.29 193.99 481.83 194.54Q482.37 195.10 482.37 195.98Q482.37 196.82 481.83 197.35Q481.29 197.88 480.40 197.88" fill="white" fill-opacity="0.7"/>
<path d="M76.11 136.06L66.42 136.06L84.56 65.98L97.14 65.98L115.18 136.06L105.49 136.06L101.07 117.82L80.53 117.82L76.11 136.06M87.54 88.92L82.45 109.95L99.15 109.95L94.16 89.02Q92.72 83.26 91.86 79.23Q90.99 75.20 90.80 73.76Q90.61 75.20 89.74 79.23Q88.88 83.26 87.54 88.92M137.55 136.06L128.05 136.06L128.05 65.98L150.80 65.98Q157.52 65.98 162.42 68.57Q167.31 71.16 170 75.82Q172.69 80.48 172.69 86.91Q172.69 93.24 170 97.90Q167.31 102.56 162.37 105.15Q157.42 107.74 150.80 107.74L137.55 107.74L137.55 136.06M137.55 74.43L137.55 99.29L150.80 99.29Q156.37 99.29 159.63 95.88Q162.90 92.48 162.90 86.91Q162.90 81.24 159.63 77.84Q156.37 74.43 150.80 74.43L137.55 74.43M225.10 136.06L186.90 136.06L186.90 127.42L201.20 127.42L201.20 74.62L186.90 74.62L186.90 65.98L225.10 65.98L225.10 74.62L210.80 74.62L210.80 127.42L225.10 127.42L225.10 136.06M263.98 137.02Q253.62 137.02 247.47 131.60Q241.33 126.17 241.33 116.67L250.83 116.67Q250.83 122.24 254.38 125.40Q257.94 128.57 263.98 128.57Q269.74 128.57 273.15 125.36Q276.56 122.14 276.56 116.76Q276.56 112.73 274.35 109.71Q272.14 106.68 268.11 105.63L257.74 102.84Q250.93 100.92 246.94 95.88Q242.96 90.84 242.96 83.93Q242.96 78.27 245.50 74Q248.05 69.72 252.66 67.37Q257.26 65.02 263.31 65.02Q269.46 65.02 274.11 67.37Q278.77 69.72 281.36 73.95Q283.95 78.17 283.95 83.74L274.54 83.74Q274.54 79.13 271.42 76.25Q268.30 73.37 263.31 73.37Q258.32 73.37 255.30 76.25Q252.27 79.13 252.27 83.74Q252.27 87.48 254.29 90.03Q256.30 92.57 259.95 93.63L270.61 96.51Q277.81 98.43 281.84 103.85Q285.87 109.28 285.87 116.76Q285.87 122.91 283.18 127.47Q280.50 132.03 275.55 134.52Q270.61 137.02 263.98 137.02M342.51 136.06L301.71 136.06L301.71 65.98L342.51 65.98L342.51 74.52L311.12 74.52L311.12 95.36L339.15 95.36L339.15 103.61L311.12 103.61L311.12 127.52L342.51 127.52L342.51 136.06M383.60 136.06L374.10 136.06L374.10 74.62L355.09 74.62L355.09 65.98L402.51 65.98L402.51 74.62L383.60 74.62L383.60 136.06M436.40 137.02Q426.51 137.02 421.18 131.55Q415.86 126.08 415.86 116.67L415.86 65.98L425.36 65.98L425.36 116.67Q425.36 122.24 428.10 125.40Q430.83 128.57 436.40 128.57Q441.87 128.57 444.70 125.40Q447.54 122.24 447.54 116.67L447.54 65.98L457.04 65.98L457.04 116.67Q457.04 126.17 451.71 131.60Q446.38 137.02 436.40 137.02M551.98 137.02Q542.29 137.02 536.58 131.60Q530.86 126.17 530.86 116.67L530.86 85.28Q530.86 75.87 536.58 70.44Q542.29 65.02 551.98 65.02Q561.58 65.02 567.30 70.49Q573.01 75.96 573.01 85.28L563.50 85.28Q563.50 79.61 560.43 76.54Q557.36 73.47 551.98 73.47Q546.51 73.47 543.44 76.54Q540.37 79.61 540.37 85.28L540.37 116.67Q540.37 122.43 543.44 125.50Q546.51 128.57 551.98 128.57Q557.36 128.57 560.43 125.50Q563.50 122.43 563.50 116.67L563.50 107.55L549.87 107.55L549.87 99.10L573.01 99.10L573.01 116.67Q573.01 126.08 567.30 131.55Q561.58 137.02 551.98 137.02M609.20 137.02Q599.60 137.02 594.03 131.45Q588.46 125.88 588.46 115.71L588.46 86.24Q588.46 76.16 594.03 70.59Q599.60 65.02 609.20 65.02Q618.80 65.02 624.37 70.54Q629.94 76.06 629.94 86.24L629.94 115.71Q629.94 125.88 624.37 131.45Q618.80 137.02 609.20 137.02M609.20 128.57Q614.58 128.57 617.50 125.50Q620.43 122.43 620.43 116.67L620.43 85.28Q620.43 79.61 617.55 76.54Q614.67 73.47 609.20 73.47Q603.73 73.47 600.85 76.54Q597.97 79.61 597.97 85.28L597.97 116.67Q597.97 122.43 600.90 125.50Q603.82 128.57 609.20 128.57M673.14 136.06L660.37 136.06L642.42 65.98L652.21 65.98L663.82 113.21Q664.98 117.72 665.79 121.90Q666.61 126.08 666.99 128.28Q667.28 126.08 668.19 121.85Q669.10 117.63 670.16 113.12L681.39 65.98L691.18 65.98L673.14 136.06M782.38 137.02Q772.02 137.02 765.87 131.60Q759.73 126.17 759.73 116.67L769.23 116.67Q769.23 122.24 772.78 125.40Q776.34 128.57 782.38 128.57Q788.14 128.57 791.55 125.36Q794.96 122.14 794.96 116.76Q794.96 112.73 792.75 109.71Q790.54 106.68 786.51 105.63L776.14 102.84Q769.33 100.92 765.34 95.88Q761.36 90.84 761.36 83.93Q761.36 78.27 763.90 74Q766.45 69.72 771.06 67.37Q775.66 65.02 781.71 65.02Q787.86 65.02 792.51 67.37Q797.17 69.72 799.76 73.95Q802.35 78.17 802.35 83.74L792.94 83.74Q792.94 79.13 789.82 76.25Q786.70 73.37 781.71 73.37Q776.72 73.37 773.70 76.25Q770.67 79.13 770.67 83.74Q770.67 87.48 772.69 90.03Q774.70 92.57 778.35 93.63L789.01 96.51Q796.21 98.43 800.24 103.85Q804.27 109.28 804.27 116.76Q804.27 122.91 801.58 127.47Q798.90 132.03 793.95 134.52Q789.01 137.02 782.38 137.02M824.91 136.06L815.22 136.06L833.36 65.98L845.94 65.98L863.98 136.06L854.29 136.06L849.87 117.82L829.33 117.82L824.91 136.06M836.34 88.92L831.25 109.95L847.95 109.95L842.96 89.02Q841.52 83.26 840.66 79.23Q839.79 75.20 839.60 73.76Q839.41 75.20 838.54 79.23Q837.68 83.26 836.34 88.92M886.35 136.06L876.94 136.06L876.94 65.98L898.64 65.98Q905.07 65.98 909.87 68.52Q914.67 71.07 917.36 75.63Q920.05 80.19 920.05 86.33Q920.05 93.44 916.45 98.52Q912.85 103.61 906.90 105.72L921.01 136.06L910.54 136.06L897.20 106.78L886.35 106.78L886.35 136.06M886.35 74.43L886.35 98.33L898.64 98.33Q904.02 98.33 907.14 95.07Q910.26 91.80 910.26 86.43Q910.26 80.96 907.09 77.69Q903.92 74.43 898.64 74.43L886.35 74.43M940.11 136.06L930.42 136.06L948.56 65.98L961.14 65.98L979.18 136.06L969.49 136.06L965.07 117.82L944.53 117.82L940.11 136.06M951.54 88.92L946.45 109.95L963.15 109.95L958.16 89.02Q956.72 83.26 955.86 79.23Q954.99 75.20 954.80 73.76Q954.61 75.20 953.74 79.23Q952.88 83.26 951.54 88.92M1036.59 136.06L995.89 136.06L995.89 65.98L1005.39 65.98L1005.39 127.42L1036.59 127.42L1036.59 136.06M1059.25 136.06L1049.74 136.06L1049.74 65.98L1059.25 65.98L1059.25 95.55L1080.75 95.55L1080.75 65.98L1090.26 65.98L1090.26 136.06L1080.75 136.06L1080.75 104.19L1059.25 104.19L1059.25 136.06M1112.91 136.06L1103.22 136.06L1121.36 65.98L1133.94 65.98L1151.98 136.06L1142.29 136.06L1137.87 117.82L1117.33 117.82L1112.91 136.06M1124.34 88.92L1119.25 109.95L1135.95 109.95L1130.96 89.02Q1129.52 83.26 1128.66 79.23Q1127.79 75.20 1127.60 73.76Q1127.41 75.20 1126.54 79.23Q1125.68 83.26 1124.34 88.92M1174.35 136.06L1164.94 136.06L1164.94 65.98L1186.64 65.98Q1193.07 65.98 1197.87 68.52Q1202.67 71.07 1205.36 75.63Q1208.05 80.19 1208.05 86.33Q1208.05 93.44 1204.45 98.52Q1200.85 103.61 1194.90 105.72L1209.01 136.06L1198.54 136.06L1185.20 106.78L1174.35 106.78L1174.35 136.06M1174.35 74.43L1174.35 98.33L1186.64 98.33Q1192.02 98.33 1195.14 95.07Q1198.26 91.80 1198.26 86.43Q1198.26 80.96 1195.09 77.69Q1191.92 74.43 1186.64 74.43L1174.35 74.43M1247.60 136.06L1238.10 136.06L1238.10 110.04L1217.07 65.98L1227.15 65.98L1240.11 93.63Q1241.26 96.12 1241.98 98.14Q1242.70 100.16 1242.90 101.02Q1243.18 100.16 1243.90 98.14Q1244.62 96.12 1245.87 93.63L1258.74 65.98L1268.53 65.98L1247.60 110.04L1247.60 136.06M1285.71 136.06L1276.02 136.06L1294.16 65.98L1306.74 65.98L1324.78 136.06L1315.09 136.06L1310.67 117.82L1290.13 117.82L1285.71 136.06M1297.14 88.92L1292.05 109.95L1308.75 109.95L1303.76 89.02Q1302.32 83.26 1301.46 79.23Q1300.59 75.20 1300.40 73.76Q1300.21 75.20 1299.34 79.23Q1298.48 83.26 1297.14 88.92M1346.38 136.06L1337.46 136.06L1337.46 65.98L1349.74 65.98L1370.67 125.12Q1370.38 122.62 1370.14 118.92Q1369.90 115.23 1369.76 111.24Q1369.62 107.26 1369.62 103.71L1369.62 65.98L1378.64 65.98L1378.64 136.06L1366.26 136.06L1345.52 76.92Q1345.71 79.42 1345.90 83.02Q1346.10 86.62 1346.24 90.56Q1346.38 94.49 1346.38 97.95L1346.38 136.06M1400.91 136.06L1391.22 136.06L1409.36 65.98L1421.94 65.98L1439.98 136.06L1430.29 136.06L1425.87 117.82L1405.33 117.82L1400.91 136.06M1412.34 88.92L1407.25 109.95L1423.95 109.95L1418.96 89.02Q1417.52 83.26 1416.66 79.23Q1415.79 75.20 1415.60 73.76Q1415.41 75.20 1414.54 79.23Q1413.68 83.26 1412.34 88.92" fill="url(#paint2_linear_0_1)"/>
<g id="Group 1">
<rect id="Rectangle 1" x="26" y="168" width="12" height="184" rx="5" fill="url(#paint3_linear_0_1)" fill-opacity="0.9"/>
</g>
<g id="Group 1_2">
<rect id="Rectangle 2" x="26" y="38" width="12" height="119" rx="5" fill="url(#paint4_linear_0_1)" fill-opacity="0.9"/>
</g>
<ellipse id="Ellipse 1" cx="148.5" cy="573" rx="215.5" ry="214" fill="url(#paint5_linear_0_1)" fill-opacity="0.4"/>
<rect id="Rectangle 3" x="1229" y="48" width="300" height="300" rx="25" fill="#FFFBFB" fill-opacity="0.9"/>
<g id="placeholder-logo"><g transform="translate(1229,48) translate(0.0,60.0) scale(1.2000)"><g fill="#666666">
  <path d="m88.05,27.65c-3.15,4 -3.2,51.2 -0.05,54.35c2.75,2.75 71.7,3.15 74.45,0.45c2.85,-2.9 2.3,-53.85 -0.65,-55.9c-1.95,-1.35 -7.15,-1.55 -36.95,-1.55l-34.7,0l-2.1,2.65zm69.45,3.35c0.65,0 1,8.6 1,23.75l0,23.75l-33,0l-33,0l-0.25,-23c-0.15,-12.6 -0.1,-23.45 0.15,-24.1c0.35,-0.85 8.9,-1.05 32.25,-0.75c17.55,0.2 32.3,0.35 32.85,0.35z"/>
  <path d="m99.15,37.3c-6.85,7.35 4.25,17.35 11.4,10.25c1.35,-1.35 2.45,-3.65 2.45,-5.05c0,-6.45 -9.35,-9.95 -13.85,-5.2z"/>
  <path d="m135,42.5c-0.7,0.85 -5.25,5.15 -10.1,9.6l-8.85,8.1l-3.2,-3.2l-3.15,-3.15l-6.35,6.3c-5.55,5.5 -6.35,6.75 -6.35,10.05l0,3.8l28.5,0l28.5,0l0,-8.6l0,-8.55l-8.15,-7.7c-9.35,-8.85 -9.15,-8.7 -10.85,-6.65zm7.25,15.2c0.95,0.9 1.75,2.9 1.75,4.45c6.35,-5.05 4.75,-7.15 4.9,-11.55c0.95,0 0,0 0,0l-6.65,7.1z"/>
  <path d="m53.65,110.75c0.1,4.8 0.45,8.65 0.75,8.5c0.35,-0.15 1.3,-0.25 2.1,-0.25c1.1,0 1.5,-1.2 1.5,-4.75l0,-4.75l3.25,5c4.9,7.5 6.2,6.75 6.55,-3.75c0.25,-8.15 0.15,-8.75 -1.7,-8.75c-1.65,0 -2.05,0.8 -2.3,4.75l-0.3,4.75l-2.8,-4.75c-4.85,-8.25 -7.25,-6.9 -7.05,4z"/>
  <path d="m91,108.9c0,9.65 0.3,10.1 6.1,10.1c5.8,0 7.15,-2.65 1.65,-3.2l-3.25,-0.3l-0.3,-6.75c-0.25,-5.95 -0.55,-6.75 -2.25,-6.75c-1.75,0 -1.95,0.7 -1.95,6.9z"/>
  <path d="m151,102.45c0,0.25 1,2.15 2.25,4.2c1.2,2.1 2.45,5.8 2.75,8.25c0.65,5.9 4,6.95 4,1.25c0.05,-2.1 1.25,-5.85 2.95,-8.9l2.9,-5.25l-2.5,0c-1.8,0 -2.8,0.85 -3.75,3.1l-1.3,3.05l-1.25,-3.05c-1.1,-2.6 -6.05,-4.8 -6.05,-2.65z"/>
  <path d="m191,107.45c0,9.05 3.4,8.85 4.25,-0.2c0.45,-5 0.35,-5.25 -1.9,-5.25c-2.2,0 -2.35,0.4 -2.35,5.45z"/>
  <path d="m180.8,104.75c-1.3,5.35 0.65,13.6 3.45,14.35c2.3,0.6 2.75,0.4 2.75,-1.2c0,-1.05 -0.45,-1.9 -1,-1.9c-0.55,0 -1,-1.6 -1,-3.5c0,-1.95 0.45,-3.5 1,-3.5c0.55,0 1,-0.7 1,-1.5c0,-0.85 -0.45,-1.5 -1,-1.5c-0.55,0 -1,-0.7 -1,-1.5c0,-2.1 -3.65,-1.9 -4.2,0.25z"/>
  <path d="m71.55,106.55c-2.2,2.25 -2.05,9.7 0.3,11.8c4.5,4.1 10.15,0.75 10.15,-6.1c0,-4.85 -2,-7.25 -6,-7.25c-1.55,0 -3.55,0.7 -4.45,1.55zm6.25,5.8c0.25,3.05 0,3.65 -1.6,3.65c-2.3,0 -3.25,-2.65 -2.05,-5.85c1.25,-3.35 3.3,-2.1 3.65,2.2z"/>
  <path d="m105.75,106.1c-2.5,1.45 -2.45,9.95 0.1,12.25c4.3,3.9 10.15,0.35 10.15,-6.2c0,-6 -5.15,-9.05 -10.25,-6.05zm6.05,6.25c0.25,3.05 0,3.65 -1.6,3.65c-2.3,0 -3.25,-2.65 -2.05,-5.85c1.25,-3.35 3.3,-2.1 3.65,2.2z"/>
  <path d="m119.2,106.2c-3.8,3.8 -0.4,12.55 4.4,11.35c1.9,-0.45 2.45,-0.3 2.15,0.65c-0.25,0.7 -1.55,1.2 -2.85,1.1c-4.05,-0.3 -5.35,0.45 -3.85,2.25c0.85,1.05 2.6,1.45 5.35,1.25l4.1,-0.3l0.3,-8.75l0.3,-8.75l-4.35,0c-2.4,0 -4.9,0.55 -5.55,1.2zm6.6,4.45c0.4,2.85 -2.15,4.85 -3.75,2.95c-0.9,-1.1 -0.9,-2 -0.05,-3.6c1.35,-2.5 3.4,-2.15 3.8,0.65z"/>
  <path d="m133.55,106.55c-2.2,2.25 -2.05,9.7 0.3,11.8c4.5,4.1 10.15,0.75 10.15,-6.1c0,-4.85 -2,-7.25 -6,-7.25c-1.55,0 -3.55,0.7 -4.45,1.55zm6.25,5.8c0.25,3.05 0,3.65 -1.6,3.65c-2.3,0 -3.25,-2.65 -2.05,-5.85c1.25,-3.35 3.3,-2.1 3.65,2.2z"/>
  <path d="m167.65,106.85c-3.9,4.3 -0.75,13.15 4.7,13.15c2.4,0 5.65,-2.75 5.65,-4.85c0,-1.4 -2.65,-1.55 -3.5,-0.15c-0.95,1.55 -4.5,1.15 -4.5,-0.5c0,-1.1 1.1,-1.5 4,-1.5c3.15,0 4,-0.35 4,-1.8c0,-5.3 -6.85,-8.25 -10.35,-4.35z"/>
  <path d="m191,117.5c0,2.15 0.4,2.6 2.25,2.3c1.5,-0.2 2.25,-1 2.25,-2.3c0,-1.3 -0.75,-2.1 -2.25,-2.3c-1.85,-0.3 -2.25,0.15 -2.25,2.3z"/>
 </g></g></g>
</g>
<defs>
<linearGradient id="paint0_linear_0_1" x1="0" y1="198" x2="1584" y2="198" gradientUnits="userSpaceOnUse">
<stop stop-color="#3D052C"/>
<stop offset="1"/>
</linearGradient>
<linearGradient id="paint1_linear_0_1" x1="323" y1="-224" x2="323" y2="352" gradientUnits="userSpaceOnUse">
<stop stop-color="#28F6F2" stop-opacity="0.4"/>
<stop offset="1" stop-color="#17908E" stop-opacity="0.7"/>
</linearGradient>
<linearGradient id="paint2_linear_0_1" x1="148.5" y1="38" x2="148.5" y2="140" gradientUnits="userSpaceOnUse">
<stop stop-color="white"/>
<stop offset="1" stop-color="#999999"/>
</linearGradient>
<linearGradient id="paint3_linear_0_1" x1="38" y1="260" x2="26" y2="260" gradientUnits="userSpaceOnUse">
<stop stop-color="#D9D9D9"/>
<stop offset="1" stop-color="#737373"/>
</linearGradient>
<linearGradient id="paint4_linear_0_1" x1="38" y1="97.5" x2="26" y2="97.5" gradientUnits="userSpaceOnUse">
<stop stop-color="#D9D9D9"/>
<stop offset="1" stop-color="#737373"/>
</linearGradient>
<linearGradient id="paint5_linear_0_1" x1="27.5" y1="434.5" x2="148.5" y2="787" gradientUnits="userSpaceOnUse">
<stop stop-color="#2E21BC"/>
<stop offset="1" stop-color="#150F56"/>
</linearGradient>
<clipPath id="clip0_0_1">
<rect width="1584" height="396" fill="white"/>
</clipPath>
</defs>
</svg>
